<?xml version="1.0" standalone="no"?>
<!DOCTYPE svg PUBLIC "-//W3C//DTD SVG 20010904//EN"
 "http://www.w3.org/TR/2001/REC-SVG-20010904/DTD/svg10.dtd">
<svg version="1.0" xmlns="http://www.w3.org/2000/svg"
 width="420.000000pt" height="420.000000pt" viewBox="0 0 420.000000 420.000000"
 preserveAspectRatio="xMidYMid meet">

<g transform="translate(0.000000,420.000000) scale(0.100000,-0.100000)"
fill="#000000" stroke="none">
<path d="M1476 3844 c-86 -21 -168 -69 -229 -133 -100 -105 -137 -211 -137
-400 l0 -113 -25 16 c-55 36 -124 9 -140 -55 -10 -40 13 -74 123 -181 89 -88
103 -98 136 -98 33 0 47 10 138 98 117 113 136 146 113 196 -24 51 -82 71
-121 41 -10 -8 -23 -15 -27 -15 -5 0 -7 62 -5 138 4 154 16 190 86 260 66 66
97 76 275 82 159 5 159 5 183 33 33 38 32 86 -2 118 -24 23 -32 24 -167 26
-97 1 -161 -3 -201 -13z"/>
<path d="M2238 3834 c-46 -25 -49 -57 -46 -534 l3 -440 28 -27 27 -28 470 0
470 0 27 28 28 27 0 269 c0 292 -3 309 -56 331 -35 15 -72 7 -99 -22 -19 -20
-20 -35 -20 -240 l0 -218 -350 0 -350 0 0 351 0 352 378 -8 c419 -8 451 -5
477 45 8 16 15 36 15 44 0 31 -24 65 -53 76 -19 6 -189 10 -476 10 -373 -1
-450 -3 -473 -16z"/>
<path d="M976 2574 l-26 -27 0 -469 0 -469 24 -24 c13 -13 39 -26 57 -30 19
-3 231 -5 471 -3 l438 3 27 28 28 27 3 248 c2 136 0 262 -3 281 -17 89 -122
111 -163 34 -8 -14 -12 -90 -12 -227 l0 -206 -345 0 -345 0 0 340 0 339 405 3
405 3 24 25 c38 39 38 89 1 125 l-24 25 -469 0 -469 0 -27 -26z"/>
<path d="M2848 2422 c-102 -103 -108 -111 -108 -150 0 -76 85 -117 145 -70
l28 22 -5 -136 c-4 -122 -7 -141 -32 -192 -32 -65 -92 -119 -166 -147 -40 -15
-76 -19 -181 -19 -171 0 -199 -13 -199 -94 0 -22 8 -40 26 -57 25 -23 30 -24
183 -23 186 1 254 19 351 90 141 104 199 244 200 488 l0 89 20 -18 c51 -46
134 -7 147 68 6 37 4 40 -104 147 -106 106 -111 110 -153 110 -41 0 -47 -4
-152 -108z"/>
<path d="M800 1261 c-122 -40 -185 -137 -162 -249 20 -96 67 -135 219 -181 84
-25 113 -54 113 -111 0 -100 -128 -132 -243 -60 -26 16 -53 30 -58 30 -5 0
-23 -19 -40 -42 l-30 -43 23 -19 c41 -34 123 -66 186 -72 157 -17 274 68 289
210 12 115 -41 183 -175 227 -129 42 -162 67 -162 123 0 44 39 78 98 84 42 4
62 0 107 -23 31 -15 62 -24 70 -21 8 3 23 21 32 40 20 42 12 55 -53 86 -47 23
-171 36 -214 21z"/>
<path d="M2115 1037 c-48 -16 -84 -34 -107 -54 -16 -14 -16 -18 -2 -44 18 -35
48 -38 104 -9 92 47 170 8 170 -85 0 -20 -6 -23 -70 -29 -173 -16 -269 -98
-240 -205 26 -99 165 -133 265 -65 49 33 53 33 68 4 10 -20 21 -26 55 -28 l43
-3 -3 198 c-3 225 -11 255 -79 300 -46 31 -143 40 -204 20z m165 -341 c0 -39
-4 -48 -31 -67 -18 -12 -52 -24 -79 -27 -39 -3 -52 0 -69 17 -27 27 -27 44 2
75 25 28 71 44 135 45 l42 1 0 -44z"/>
<path d="M2730 1034 c-19 -8 -47 -27 -62 -41 l-27 -26 -8 34 c-9 33 -11 34
-61 37 l-52 3 0 -345 0 -346 65 0 65 0 0 105 0 106 31 -23 c25 -19 44 -23 99
-23 60 0 74 4 112 30 26 19 55 52 73 85 28 51 30 62 30 160 0 99 -2 108 -31
160 -51 89 -144 123 -234 84z m89 -100 c34 -24 51 -74 51 -149 0 -120 -47
-181 -133 -172 -80 7 -87 20 -87 163 0 122 0 123 28 142 51 36 103 42 141 16z"/>
<path d="M3304 1029 c-23 -11 -50 -29 -60 -40 -18 -20 -18 -20 -30 13 -10 31
-14 33 -62 36 l-52 3 0 -345 0 -346 65 0 65 0 0 105 0 106 29 -22 c36 -27 103
-35 161 -19 58 15 121 80 144 146 32 95 16 244 -34 314 -47 65 -149 88 -226
49z m90 -90 c37 -17 56 -67 56 -148 0 -126 -45 -187 -133 -178 -80 7 -87 20
-87 163 0 122 0 123 28 142 48 34 92 41 136 21z"/>
<path d="M1215 783 l82 -258 59 0 59 0 17 50 c9 28 36 110 59 183 l42 132 45
-142 c24 -79 50 -161 56 -183 l12 -40 60 -3 60 -3 79 248 c43 136 80 254 83
261 3 9 -11 12 -51 12 -32 0 -59 -5 -65 -12 -5 -7 -29 -83 -52 -168 -23 -85
-45 -165 -49 -178 -5 -17 -20 24 -60 157 -29 98 -58 184 -64 190 -15 15 -92
14 -105 -1 -5 -7 -34 -93 -64 -191 l-54 -177 -47 176 c-26 97 -52 183 -58 190
-7 9 -32 14 -69 14 l-57 0 82 -257z"/>
</g>
</svg>
